<svg width="64" height="64" viewBox="0 0 64 64" fill="none" xmlns="http://www.w3.org/2000/svg">
<mask id="mask0_729_819" style="mask-type:alpha" maskUnits="userSpaceOnUse" x="0" y="0" width="64" height="64">
<rect width="64" height="64" fill="#D9D9D9"/>
</mask>
<g mask="url(#mask0_729_819)">
<path d="M32 58.6667C28.3111 58.6667 24.8444 57.9662 21.6 56.5653C18.3556 55.1662 15.5333 53.2667 13.1333 50.8667C10.7333 48.4667 8.83378 45.6444 7.43467 42.4C6.03378 39.1555 5.33333 35.6889 5.33333 32C5.33333 28.3111 6.03378 24.8444 7.43467 21.6C8.83378 18.3556 10.7333 15.5333 13.1333 13.1333C15.5333 10.7333 18.3556 8.83288 21.6 7.43199C24.8444 6.03288 28.3111 5.33333 32 5.33333C34.8889 5.33333 37.6222 5.75555 40.2 6.59999C42.7778 7.44444 45.1556 8.62222 47.3333 10.1333L43.4667 14.0667C41.7778 13 39.9778 12.1662 38.0667 11.5653C36.1556 10.9662 34.1333 10.6667 32 10.6667C26.0889 10.6667 21.056 12.744 16.9013 16.8987C12.7449 21.0551 10.6667 26.0889 10.6667 32C10.6667 37.9111 12.7449 42.9449 16.9013 47.1013C21.056 51.256 26.0889 53.3333 32 53.3333C37.9111 53.3333 42.9449 51.256 47.1013 47.1013C51.256 42.9449 53.3333 37.9111 53.3333 32C53.3333 31.2 53.2889 30.4 53.2 29.6C53.1111 28.8 52.9778 28.0222 52.8 27.2667L57.1333 22.9333C57.6222 24.3556 58 25.8222 58.2667 27.3333C58.5333 28.8444 58.6667 30.4 58.6667 32C58.6667 35.6889 57.9662 39.1555 56.5653 42.4C55.1662 45.6444 53.2667 48.4667 50.8667 50.8667C48.4667 53.2667 45.6444 55.1662 42.4 56.5653C39.1556 57.9662 35.6889 58.6667 32 58.6667ZM28.2667 44.2667L16.9333 32.9333L20.6667 29.2L28.2667 36.8L54.9333 10.0667L58.6667 13.8L28.2667 44.2667Z" fill="#25C617"/>
</g>
</svg>
