<svg width="68" height="70" viewBox="0 0 68 70" fill="none" xmlns="http://www.w3.org/2000/svg">
<mask id="mask0_729_824" style="mask-type:alpha" maskUnits="userSpaceOnUse" x="0" y="0" width="68" height="70">
<rect width="68" height="70" fill="#D9D9D9"/>
</mask>
<g mask="url(#mask0_729_824)">
<path d="M23.8 49.5833L34 39.0833L44.2 49.5833L48.1667 45.5L37.9667 35L48.1667 24.5L44.2 20.4167L34 30.9167L23.8 20.4167L19.8333 24.5L30.0333 35L19.8333 45.5L23.8 49.5833ZM34 64.1667C30.0806 64.1667 26.3972 63.4006 22.95 61.8683C19.5028 60.3381 16.5042 58.2604 13.9542 55.6354C11.4042 53.0104 9.38589 49.9236 7.89934 46.375C6.41089 42.8264 5.66667 39.0347 5.66667 35C5.66667 30.9653 6.41089 27.1736 7.89934 23.625C9.38589 20.0764 11.4042 16.9896 13.9542 14.3646C16.5042 11.7396 19.5028 9.66097 22.95 8.12874C26.3972 6.59847 30.0806 5.83333 34 5.83333C37.9194 5.83333 41.6028 6.59847 45.05 8.12874C48.4972 9.66097 51.4958 11.7396 54.0458 14.3646C56.5958 16.9896 58.6141 20.0764 60.1007 23.625C61.5891 27.1736 62.3333 30.9653 62.3333 35C62.3333 39.0347 61.5891 42.8264 60.1007 46.375C58.6141 49.9236 56.5958 53.0104 54.0458 55.6354C51.4958 58.2604 48.4972 60.3381 45.05 61.8683C41.6028 63.4006 37.9194 64.1667 34 64.1667ZM34 58.3333C40.3278 58.3333 45.6875 56.0729 50.0792 51.5521C54.4708 47.0312 56.6667 41.5139 56.6667 35C56.6667 28.4861 54.4708 22.9687 50.0792 18.4479C45.6875 13.9271 40.3278 11.6667 34 11.6667C27.6722 11.6667 22.3125 13.9271 17.9208 18.4479C13.5292 22.9687 11.3333 28.4861 11.3333 35C11.3333 41.5139 13.5292 47.0312 17.9208 51.5521C22.3125 56.0729 27.6722 58.3333 34 58.3333Z" fill="#565656"/>
</g>
</svg>
