<svg width="68" height="70" viewBox="0 0 68 70" fill="none" xmlns="http://www.w3.org/2000/svg">
<mask id="mask0_41_109" style="mask-type:alpha" maskUnits="userSpaceOnUse" x="0" y="0" width="68" height="70">
<rect width="68" height="70" fill="#D9D9D9"/>
</mask>
<g mask="url(#mask0_41_109)">
<path d="M23.8 49.5833L34 39.0833L44.2 49.5833L48.1667 45.4999L37.9667 34.9999L48.1667 24.4999L44.2 20.4166L34 30.9166L23.8 20.4166L19.8333 24.4999L30.0333 34.9999L19.8333 45.4999L23.8 49.5833ZM34 64.1666C30.0805 64.1666 26.3972 63.4005 22.95 61.8683C19.5028 60.338 16.5042 58.2603 13.9542 55.6353C11.4042 53.0103 9.38588 49.9235 7.89932 46.3749C6.41088 42.8263 5.66666 39.0346 5.66666 34.9999C5.66666 30.9652 6.41088 27.1735 7.89932 23.6249C9.38588 20.0763 11.4042 16.9895 13.9542 14.3645C16.5042 11.7395 19.5028 9.66089 22.95 8.12867C26.3972 6.59839 30.0805 5.83325 34 5.83325C37.9194 5.83325 41.6028 6.59839 45.05 8.12867C48.4972 9.66089 51.4958 11.7395 54.0458 14.3645C56.5958 16.9895 58.6141 20.0763 60.1007 23.6249C61.5891 27.1735 62.3333 30.9652 62.3333 34.9999C62.3333 39.0346 61.5891 42.8263 60.1007 46.3749C58.6141 49.9235 56.5958 53.0103 54.0458 55.6353C51.4958 58.2603 48.4972 60.338 45.05 61.8683C41.6028 63.4005 37.9194 64.1666 34 64.1666ZM34 58.3333C40.3278 58.3333 45.6875 56.0728 50.0792 51.552C54.4708 47.0312 56.6667 41.5138 56.6667 34.9999C56.6667 28.486 54.4708 22.9687 50.0792 18.4478C45.6875 13.927 40.3278 11.6666 34 11.6666C27.6722 11.6666 22.3125 13.927 17.9208 18.4478C13.5292 22.9687 11.3333 28.486 11.3333 34.9999C11.3333 41.5138 13.5292 47.0312 17.9208 51.552C22.3125 56.0728 27.6722 58.3333 34 58.3333Z" fill="black"/>
</g>
</svg>
