<svg width="64" height="64" viewBox="0 0 64 64" fill="none" xmlns="http://www.w3.org/2000/svg">
<mask id="mask0_41_103" style="mask-type:alpha" maskUnits="userSpaceOnUse" x="0" y="0" width="64" height="64">
<rect width="64" height="64" fill="#D9D9D9"/>
</mask>
<g mask="url(#mask0_41_103)">
<path d="M32 58.6666C28.3111 58.6666 24.8445 57.9661 21.6 56.5653C18.3556 55.1661 15.5333 53.2666 13.1333 50.8666C10.7333 48.4666 8.83379 45.6444 7.43468 42.3999C6.03379 39.1555 5.33334 35.6888 5.33334 31.9999C5.33334 28.311 6.03379 24.8444 7.43468 21.5999C8.83379 18.3555 10.7333 15.5333 13.1333 13.1333C15.5333 10.7333 18.3556 8.83281 21.6 7.43192C24.8445 6.03281 28.3111 5.33325 32 5.33325C34.8889 5.33325 37.6222 5.75547 40.2 6.59992C42.7778 7.44436 45.1556 8.62214 47.3333 10.1333L43.4667 14.0666C41.7778 12.9999 39.9778 12.1661 38.0667 11.5653C36.1556 10.9661 34.1333 10.6666 32 10.6666C26.0889 10.6666 21.056 12.7439 16.9013 16.8986C12.7449 21.055 10.6667 26.0888 10.6667 31.9999C10.6667 37.911 12.7449 42.9448 16.9013 47.1012C21.056 51.2559 26.0889 53.3332 32 53.3332C37.9111 53.3332 42.9449 51.2559 47.1013 47.1012C51.256 42.9448 53.3333 37.911 53.3333 31.9999C53.3333 31.1999 53.2889 30.3999 53.2 29.5999C53.1111 28.7999 52.9778 28.0221 52.8 27.2666L57.1333 22.9333C57.6222 24.3555 58 25.8221 58.2667 27.3333C58.5333 28.8444 58.6667 30.3999 58.6667 31.9999C58.6667 35.6888 57.9662 39.1555 56.5653 42.3999C55.1662 45.6444 53.2667 48.4666 50.8667 50.8666C48.4667 53.2666 45.6445 55.1661 42.4 56.5653C39.1556 57.9661 35.6889 58.6666 32 58.6666ZM28.2667 44.2666L16.9333 32.9333L20.6667 29.1999L28.2667 36.7999L54.9333 10.0666L58.6667 13.7999L28.2667 44.2666Z" fill="#25C617"/>
</g>
</svg>
