<svg width="298" height="284" viewBox="0 0 298 284" fill="none" xmlns="http://www.w3.org/2000/svg">
<mask id="mask0_317_1589" style="mask-type:alpha" maskUnits="userSpaceOnUse" x="0" y="0" width="298" height="284">
<rect x="0.785156" y="0.783203" width="296.645" height="282.273" fill="#D9D9D9"/>
</mask>
<g mask="url(#mask0_317_1589)">
<path d="M37.875 247.775V83.1157H87.3158V36.0703H210.918V130.161H260.359V247.775H161.477V200.729H136.757V247.775H37.875ZM62.5954 224.252H87.3158V200.729H62.5954V224.252ZM62.5954 177.207H87.3158V153.684H62.5954V177.207ZM62.5954 130.161H87.3158V106.638H62.5954V130.161ZM112.036 177.207H136.757V153.684H112.036V177.207ZM112.036 130.161H136.757V106.638H112.036V130.161ZM112.036 83.1157H136.757V59.593H112.036V83.1157ZM161.477 177.207H186.197V153.684H161.477V177.207ZM161.477 130.161H186.197V106.638H161.477V130.161ZM161.477 83.1157H186.197V59.593H161.477V83.1157ZM210.918 224.252H235.638V200.729H210.918V224.252ZM210.918 177.207H235.638V153.684H210.918V177.207Z" fill="#B3B3B3"/>
</g>
</svg>
