<svg width="80" height="80" viewBox="0 0 80 80" fill="none" xmlns="http://www.w3.org/2000/svg">
<mask id="mask0_49_165" style="mask-type:alpha" maskUnits="userSpaceOnUse" x="0" y="0" width="80" height="80">
<rect width="80" height="80" fill="#D9D9D9"/>
</mask>
<g mask="url(#mask0_49_165)">
<path d="M23.3333 70C21.5 70 19.9311 69.3478 18.6267 68.0433C17.32 66.7367 16.6667 65.1667 16.6667 63.3333V20H13.3333V13.3333H30V10H50V13.3333H66.6667V20H63.3333V63.3333C63.3333 65.1667 62.6811 66.7367 61.3767 68.0433C60.07 69.3478 58.5 70 56.6667 70H23.3333ZM56.6667 20H23.3333V63.3333H56.6667V20ZM30 56.6667H36.6667V26.6667H30V56.6667ZM43.3333 56.6667H50V26.6667H43.3333V56.6667Z" fill="#FF2F01"/>
</g>
</svg>
