<svg width="52" height="62" viewBox="0 0 52 62" fill="none" xmlns="http://www.w3.org/2000/svg">
<path d="M49.8214 43.6039L38.6028 37.8189C38.1236 37.5731 37.5909 37.5213 37.0851 37.6713C36.5793 37.8213 36.1277 38.1649 35.7982 38.6505L30.83 45.9541C23.0328 41.5307 16.7579 33.9805 13.0816 24.5987L19.1517 18.6208C19.556 18.2251 19.8422 17.6817 19.9669 17.0728C20.0916 16.4639 20.048 15.8227 19.8428 15.2462L15.0349 1.74769C14.8096 1.12628 14.4112 0.61893 13.9083 0.313108C13.4055 0.00728553 12.8297 -0.077834 12.2803 0.0724261L1.86308 2.96497C1.33337 3.11215 0.860768 3.47101 0.522399 3.983C0.184029 4.49499 -0.000122023 5.12985 6.06626e-08 5.78399C6.06626e-08 36.698 20.8244 61.7064 46.4768 61.7064C47.0206 61.7068 47.5485 61.4854 47.9742 61.0782C48.3999 60.6711 48.6983 60.1023 48.8207 59.4647L51.2247 46.9304C51.3488 46.2661 51.2765 45.5705 51.0204 44.9634C50.7643 44.3562 50.3403 43.8755 49.8214 43.6039Z" fill="#FF2F01"/>
</svg>
