<svg width="60" height="62" viewBox="0 0 60 62" fill="none" xmlns="http://www.w3.org/2000/svg">
<path d="M58.4029 53.3583L46.9891 41.3415C46.4739 40.7991 45.7756 40.4978 45.0429 40.4978H43.1768C46.3365 36.2431 48.214 30.8916 48.214 25.0701C48.214 11.2213 37.5558 0 24.4019 0C11.248 0 0.589783 11.2213 0.589783 25.0701C0.589783 38.9189 11.248 50.1401 24.4019 50.1401C29.9313 50.1401 35.0143 48.1635 39.0555 44.8368V46.8015C39.0555 47.5729 39.3417 48.3081 39.8569 48.8505L51.2707 60.8672C52.3468 62.0002 54.0869 62.0002 55.1516 60.8672L58.3914 57.4563C59.4675 56.3233 59.4675 54.4912 58.4029 53.3583ZM24.4019 40.4978C16.3081 40.4978 9.74829 33.6035 9.74829 25.0701C9.74829 16.5487 16.2966 9.64233 24.4019 9.64233C32.4957 9.64233 39.0555 16.5366 39.0555 25.0701C39.0555 33.5915 32.5072 40.4978 24.4019 40.4978Z" fill="black"/>
</svg>
