<svg width="52" height="62" viewBox="0 0 52 62" fill="none" xmlns="http://www.w3.org/2000/svg">
<path d="M16.942 34.7099H12.3631C11.6076 34.7099 10.9894 34.059 10.9894 33.2636V28.4428C10.9894 27.6474 11.6076 26.9966 12.3631 26.9966H16.942C17.6975 26.9966 18.3157 27.6474 18.3157 28.4428V33.2636C18.3157 34.059 17.6975 34.7099 16.942 34.7099ZM29.3051 33.2636V28.4428C29.3051 27.6474 28.6869 26.9966 27.9314 26.9966H23.3525C22.597 26.9966 21.9788 27.6474 21.9788 28.4428V33.2636C21.9788 34.059 22.597 34.7099 23.3525 34.7099H27.9314C28.6869 34.7099 29.3051 34.059 29.3051 33.2636ZM40.2945 33.2636V28.4428C40.2945 27.6474 39.6763 26.9966 38.9208 26.9966H34.3419C33.5864 26.9966 32.9682 27.6474 32.9682 28.4428V33.2636C32.9682 34.059 33.5864 34.7099 34.3419 34.7099H38.9208C39.6763 34.7099 40.2945 34.059 40.2945 33.2636ZM29.3051 44.8336V40.0128C29.3051 39.2173 28.6869 38.5665 27.9314 38.5665H23.3525C22.597 38.5665 21.9788 39.2173 21.9788 40.0128V44.8336C21.9788 45.629 22.597 46.2798 23.3525 46.2798H27.9314C28.6869 46.2798 29.3051 45.629 29.3051 44.8336ZM18.3157 44.8336V40.0128C18.3157 39.2173 17.6975 38.5665 16.942 38.5665H12.3631C11.6076 38.5665 10.9894 39.2173 10.9894 40.0128V44.8336C10.9894 45.629 11.6076 46.2798 12.3631 46.2798H16.942C17.6975 46.2798 18.3157 45.629 18.3157 44.8336ZM40.2945 44.8336V40.0128C40.2945 39.2173 39.6763 38.5665 38.9208 38.5665H34.3419C33.5864 38.5665 32.9682 39.2173 32.9682 40.0128V44.8336C32.9682 45.629 33.5864 46.2798 34.3419 46.2798H38.9208C39.6763 46.2798 40.2945 45.629 40.2945 44.8336ZM51.2839 13.4983V55.9214C51.2839 59.1152 48.8227 61.7064 45.7892 61.7064H5.4947C2.46117 61.7064 0 59.1152 0 55.9214V13.4983C0 10.3045 2.46117 7.7133 5.4947 7.7133H10.9894V1.44624C10.9894 0.65081 11.6076 0 12.3631 0H16.942C17.6975 0 18.3157 0.65081 18.3157 1.44624V7.7133H32.9682V1.44624C32.9682 0.65081 33.5864 0 34.3419 0H38.9208C39.6763 0 40.2945 0.65081 40.2945 1.44624V7.7133H45.7892C48.8227 7.7133 51.2839 10.3045 51.2839 13.4983ZM45.7892 55.1983V19.2833H5.4947V55.1983C5.4947 55.596 5.80378 55.9214 6.18154 55.9214H45.1024C45.4801 55.9214 45.7892 55.596 45.7892 55.1983Z" fill="#FF2F01"/>
</svg>
