<svg width="289" height="296" viewBox="0 0 289 296" fill="none" xmlns="http://www.w3.org/2000/svg">
<mask id="mask0_317_1584" style="mask-type:alpha" maskUnits="userSpaceOnUse" x="0" y="0" width="289" height="296">
<rect x="0.140625" width="288.107" height="296" fill="#D9D9D9"/>
</mask>
<g mask="url(#mask0_317_1584)">
<path d="M70.3538 210.899C80.5576 202.883 91.9618 196.56 104.567 191.931C117.171 187.31 130.376 184.999 144.181 184.999C157.986 184.999 171.191 187.31 183.796 191.931C196.401 196.56 207.805 202.883 218.009 210.899C225.011 202.472 230.465 192.913 234.371 182.224C238.268 171.535 240.217 160.127 240.217 147.999C240.217 120.66 230.865 97.3793 212.162 78.1557C193.451 58.9404 170.791 49.3327 144.181 49.3327C117.571 49.3327 94.9149 58.9404 76.212 78.1557C57.5011 97.3793 48.1456 120.66 48.1456 147.999C48.1456 160.127 50.0983 171.535 54.0038 182.224C57.9012 192.913 63.3512 202.472 70.3538 210.899ZM144.181 160.333C132.377 160.333 122.421 156.172 114.314 147.851C106.215 139.522 102.166 129.294 102.166 117.166C102.166 105.038 106.215 94.8098 114.314 86.4807C122.421 78.1598 132.377 73.9994 144.181 73.9994C155.986 73.9994 165.941 78.1598 174.048 86.4807C182.147 94.8098 186.197 105.038 186.197 117.166C186.197 129.294 182.147 139.522 174.048 147.851C165.941 156.172 155.986 160.333 144.181 160.333ZM144.181 271.333C127.575 271.333 111.969 268.093 97.3638 261.614C82.7584 255.143 70.0537 246.358 59.2497 235.258C48.4457 224.158 39.8946 211.105 33.5962 196.099C27.2899 181.094 24.1367 165.06 24.1367 147.999C24.1367 130.938 27.2899 114.905 33.5962 99.8994C39.8946 84.8938 48.4457 71.841 59.2497 60.741C70.0537 49.641 82.7584 40.8515 97.3638 34.3724C111.969 27.9015 127.575 24.666 144.181 24.666C160.787 24.666 176.393 27.9015 190.999 34.3724C205.604 40.8515 218.309 49.641 229.113 60.741C239.917 71.841 248.468 84.8938 254.766 99.8994C261.072 114.905 264.226 130.938 264.226 147.999C264.226 165.06 261.072 181.094 254.766 196.099C248.468 211.105 239.917 224.158 229.113 235.258C218.309 246.358 205.604 255.143 190.999 261.614C176.393 268.093 160.787 271.333 144.181 271.333ZM144.181 246.666C154.785 246.666 164.789 245.075 174.192 241.893C183.596 238.703 192.199 234.127 200.002 228.166C192.199 222.205 183.596 217.629 174.192 214.439C164.789 211.257 154.785 209.666 144.181 209.666C133.577 209.666 123.574 211.257 114.17 214.439C104.767 217.629 96.1634 222.205 88.3605 228.166C96.1634 234.127 104.767 238.703 114.17 241.893C123.574 245.075 133.577 246.666 144.181 246.666ZM144.181 135.666C149.383 135.666 153.685 133.919 157.086 130.424C160.487 126.93 162.188 122.51 162.188 117.166C162.188 111.822 160.487 107.402 157.086 103.908C153.685 100.413 149.383 98.666 144.181 98.666C138.979 98.666 134.678 100.413 131.276 103.908C127.875 107.402 126.175 111.822 126.175 117.166C126.175 122.51 127.875 126.93 131.276 130.424C134.678 133.919 138.979 135.666 144.181 135.666Z" fill="#B3B3B3"/>
</g>
</svg>
