<svg width="56" height="54" viewBox="0 0 56 54" fill="none" xmlns="http://www.w3.org/2000/svg">
<path d="M28 53.9999C27.6315 54.0024 27.2663 53.9222 26.9252 53.7642C26.5841 53.6061 26.2739 53.3731 26.0123 53.0787L4.25917 28.3651C1.53055 25.2368 0 21.0132 0 16.6119C0 12.2106 1.53055 7.98698 4.25917 4.85863C7.00914 1.74723 10.7342 0 14.6178 0C18.5013 0 22.2264 1.74723 24.9764 4.85863L28 8.28931L31.0236 4.85863C33.7736 1.74723 37.4987 0 41.3822 0C45.2658 0 48.9909 1.74723 51.7408 4.85863C54.4694 7.98698 56 12.2106 56 16.6119C56 21.0132 54.4694 25.2368 51.7408 28.3651L29.9877 53.0787C29.7261 53.3731 29.4159 53.6061 29.0748 53.7642C28.7337 53.9222 28.3684 54.0024 28 53.9999ZM14.6178 6.35161C13.4326 6.34552 12.2582 6.60631 11.1625 7.11886C10.0668 7.63141 9.07165 8.38555 8.23464 9.33757C6.54384 11.2661 5.5947 13.8758 5.5947 16.596C5.5947 19.3163 6.54384 21.9259 8.23464 23.8544L28 46.3127L47.7654 23.8544C49.4562 21.9259 50.4053 19.3163 50.4053 16.596C50.4053 13.8758 49.4562 11.2661 47.7654 9.33757C46.0398 7.48789 43.756 6.45738 41.3822 6.45738C39.0084 6.45738 36.7246 7.48789 34.9991 9.33757L29.9877 15.0554C29.7275 15.3531 29.4178 15.5894 29.0767 15.7507C28.7355 15.912 28.3696 15.995 28 15.995C27.6304 15.995 27.2645 15.912 26.9233 15.7507C26.5822 15.5894 26.2725 15.3531 26.0123 15.0554L21.0009 9.33757C20.1639 8.38555 19.1688 7.63141 18.0731 7.11886C16.9774 6.60631 15.8029 6.34552 14.6178 6.35161Z" fill="#231F20"/>
</svg>
