<svg width="67" height="53" viewBox="0 0 67 53" fill="none" xmlns="http://www.w3.org/2000/svg">
<path d="M65.731 17.4651C66.2412 17.0381 67 17.4376 67 18.1125V46.2798C67 49.9299 64.1872 52.8912 60.7204 52.8912H6.29663C2.82973 52.8912 0.0169678 49.9299 0.0169678 46.2798V18.1263C0.0169678 17.4376 0.762677 17.0519 1.28598 17.4789C4.21649 19.8755 8.10203 22.9195 21.4463 33.1259C24.2067 35.247 28.8642 39.7097 33.5085 39.6822C38.179 39.7235 42.928 35.1644 45.5838 33.1259C58.928 22.9195 62.8005 19.8618 65.731 17.4651ZM33.5085 35.2608C36.5437 35.3159 40.9133 31.2389 43.1111 29.5585C60.4718 16.2943 61.7931 15.1374 65.7964 11.8317C66.5552 11.2118 67 10.2477 67 9.22841V6.6114C67 2.96136 64.1872 0 60.7204 0H6.29663C2.82973 0 0.0169678 2.96136 0.0169678 6.6114V9.22841C0.0169678 10.2477 0.461777 11.1981 1.22057 11.8317C5.22385 15.1236 6.5452 16.2943 23.9058 29.5585C26.1037 31.2389 30.4733 35.3159 33.5085 35.2608Z" fill="#FF2F01"/>
</svg>
