<svg width="58" height="58" viewBox="0 0 58 58" fill="none" xmlns="http://www.w3.org/2000/svg">
<path d="M48.4833 36.0835H44.8938C44.4178 36.0835 43.9613 36.2735 43.6247 36.6119C43.2881 36.9502 43.099 37.4091 43.099 37.8876V50.5168H7.20382V14.4334H23.3567C23.8327 14.4334 24.2892 14.2433 24.6258 13.905C24.9623 13.5666 25.1514 13.1077 25.1514 12.6292V9.02087C25.1514 8.54237 24.9623 8.08347 24.6258 7.74512C24.2892 7.40677 23.8327 7.21669 23.3567 7.21669H5.40906C3.98106 7.21669 2.61155 7.78694 1.6018 8.80198C0.592051 9.81703 0.0247803 11.1937 0.0247803 12.6292L0.0247803 52.321C0.0247803 53.7565 0.592051 55.1332 1.6018 56.1483C2.61155 57.1633 3.98106 57.7335 5.40906 57.7335H44.8938C46.3218 57.7335 47.6913 57.1633 48.7011 56.1483C49.7108 55.1332 50.2781 53.7565 50.2781 52.321V37.8876C50.2781 37.4091 50.089 36.9502 49.7524 36.6119C49.4158 36.2735 48.9593 36.0835 48.4833 36.0835ZM54.765 0H40.4069C38.0098 0 36.8118 2.92163 38.5 4.62319L42.5079 8.65214L15.1681 36.1252C14.9171 36.3766 14.718 36.6754 14.5821 37.0043C14.4462 37.3333 14.3763 37.6859 14.3763 38.0421C14.3763 38.3983 14.4462 38.751 14.5821 39.0799C14.718 39.4089 14.9171 39.7076 15.1681 39.959L17.711 42.5108C17.9611 42.7631 18.2583 42.9633 18.5856 43.0999C18.9128 43.2365 19.2636 43.3068 19.618 43.3068C19.9723 43.3068 20.3231 43.2365 20.6504 43.0999C20.9776 42.9633 21.2748 42.7631 21.5249 42.5108L48.8512 15.0333L52.8581 19.0566C54.5406 20.748 57.4571 19.564 57.4571 17.1396V2.70626C57.4571 1.98852 57.1735 1.30017 56.6686 0.792645C56.1637 0.285123 55.479 0 54.765 0V0Z" fill="#FF2F01"/>
</svg>
