<svg width="52" height="62" viewBox="0 0 52 62" fill="none" xmlns="http://www.w3.org/2000/svg">
<path d="M25.6419 30.8532C33.7352 30.8532 40.2945 23.9474 40.2945 15.4266C40.2945 6.90582 33.7352 0 25.6419 0C17.5487 0 10.9894 6.90582 10.9894 15.4266C10.9894 23.9474 17.5487 30.8532 25.6419 30.8532ZM35.8987 34.7099H33.987C31.4457 35.9392 28.6182 36.6382 25.6419 36.6382C22.6656 36.6382 19.8496 35.9392 17.2969 34.7099H15.3852C6.89127 34.7099 0 41.9652 0 50.9078V55.9214C0 59.1152 2.46117 61.7064 5.4947 61.7064H45.7892C48.8227 61.7064 51.2839 59.1152 51.2839 55.9214V50.9078C51.2839 41.9652 44.3926 34.7099 35.8987 34.7099Z" fill="#FF2F01"/>
</svg>
